<svg xmlns="http://www.w3.org/2000/svg" width="101.69" height="114.51" viewBox="0 0 101.69 114.51"><g id="Layer_2" data-name="Layer 2"><g id="图层_1" data-name="图层 1"><path d="M101.45,17.65C100.9,9.15,81.78,3.4,80.25,3.49c-21.87-5-52.14-5.8-73.47,5.75-2.26,1.43-6,4.64-6.6,8.41-2,18.34,13.1,57.74,29.71,80.6C41,113.68,49.05,114.57,50.79,114.5,77.79,109.57,104.53,36.7,101.45,17.65Z" fill="#fff"/><path d="M22.92,65.81c7,3.74,14.53,10.45,14.51,17.61a.93.93,0,0,0,.94.93H63.26a.93.93,0,0,0,.93-.93c0-7.16,7.52-13.87,14.51-17.61a5,5,0,0,0,2.34-6C76.79,47.57,66.19,16,60.85.48a134.87,134.87,0,0,0-20-.2c-5.31,15.52-16,47-20.27,59.53A5,5,0,0,0,22.92,65.81Z" fill="#040000"/><path d="M36.55,31.82c4.23-.06,5.34,6,1.45,7.51l7,45h-.92l-7-44.78C31.66,40.23,31.05,32,36.55,31.82Z" fill="#fff"/><path d="M32.49,47.87c4.29,0,5.34,6.14,1.37,7.55L41,84.35h-.94L33,55.63C27.56,56.16,27.06,48,32.49,47.87Z" fill="#fff"/><path d="M40.6,15.77c4.23-.06,5.34,6,1.46,7.5L48.6,84.35h-.92L41.17,23.51C35.71,24.16,35.11,15.91,40.6,15.77Z" fill="#fff"/><path d="M61,15.77c-4.23-.06-5.34,6-1.45,7.5L53,84.35h.9l6.51-60.84C65.92,24.16,66.51,15.91,61,15.77Z" fill="#fff"/><path d="M65.08,31.82c-4.23-.06-5.35,6-1.46,7.51l-7,45h.92l7-44.78C69.92,40.23,70.57,32,65.08,31.82Z" fill="#fff"/><path d="M69.13,47.87c-4.28,0-5.34,6.14-1.36,7.55L60.61,84.35h1l7.09-28.72C74.06,56.16,74.56,48,69.13,47.87Z" fill="#fff"/><path d="M44.79,95.24c-.06.09.16,2.05-.15,2H38.29a.15.15,0,0,1-.15-.14V86.29c-.11-.32,2.11-.08,2.2-.15a.15.15,0,0,1,.15.15h0c.14.14-.27,8.83.15,8.8C40.69,95.16,44.92,94.92,44.79,95.24Z" fill="#040000"/><path d="M47.49,92.78l-3.7-6.42a.15.15,0,0,1,.06-.2h.07a16.55,16.55,0,0,1,2.54.08l2.26,4.33h.1l2.34-4.33a.13.13,0,0,1,.12-.08h2.3a.13.13,0,0,1,.15.11h0a.17.17,0,0,1,0,.1L50,92.75c-.14.07.18,4.58-.17,4.46-.1-.06-2.32.16-2.22-.14C47.49,97,47.55,92.84,47.49,92.78Z" fill="#040000"/><path d="M57.4,91.5c.07-.13-3.46-5.41-2.84-5.36a16.33,16.33,0,0,1,2.52.08l2.06,3.87h.09l2.11-3.87a.14.14,0,0,1,.13-.08c.08.09,2.82-.23,2.49.22,0,.15-3.17,5-3,5.19L64.1,97c.34.45-2.52.14-2.58.22a.15.15,0,0,1-.13-.07l-2.16-4.07h-.09l-2.28,4.07a.15.15,0,0,1-.12.07H54.36C53.7,97.08,57.61,91.8,57.4,91.5Z" fill="#040000"/></g></g></svg>